<?xml version="1.0" encoding="UTF-8"?>
<svg width="36px" height="44px" viewBox="0 0 36 44" version="1.1" xmlns="http://www.w3.org/2000/svg" xmlns:xlink="http://www.w3.org/1999/xlink">
    <title>6DE2B06B-435F-4302-9CE4-E10520200531</title>
    <g id="Page-1" stroke="none" stroke-width="1" fill="none" fill-rule="evenodd">
        <g id="Version-24-05-(Drishti)-Copy-3" transform="translate(-916, -1498)" fill="blue" fill-rule="nonzero">
            <g id="plagiarism_24dp_FILL1_wght400_GRAD0_opsz24-(1)" transform="translate(916.5, 1498.375)">
                <path d="M16.1416667,32.5 C16.7916667,32.5 17.4326389,32.41875 18.0645833,32.25625 C18.6965278,32.09375 19.2833333,31.85 19.825,31.525 L25.1333333,36.8333333 L28.1666667,33.8 L22.8583333,28.4916667 C23.1833333,27.95 23.4270833,27.3631944 23.5895833,26.73125 C23.7520833,26.0993056 23.8333333,25.4583333 23.8333333,24.8083333 C23.8333333,22.7138889 23.0930556,20.9444444 21.6125,19.5 C20.1319444,18.0555556 18.3444444,17.3333333 16.25,17.3333333 C14.1555556,17.3333333 12.3680556,18.0736111 10.8875,19.5541667 C9.40694444,21.0347222 8.66666667,22.8222222 8.66666667,24.9166667 C8.66666667,27.0111111 9.38888889,28.7986111 10.8333333,30.2791667 C12.2777778,31.7597222 14.0472222,32.5 16.1416667,32.5 Z M16.25,28.1666667 C15.3472222,28.1666667 14.5798611,27.8506944 13.9479167,27.21875 C13.3159722,26.5868056 13,25.8194444 13,24.9166667 C13,24.0138889 13.3159722,23.2465278 13.9479167,22.6145833 C14.5798611,21.9826389 15.3472222,21.6666667 16.25,21.6666667 C17.1527778,21.6666667 17.9201389,21.9826389 18.5520833,22.6145833 C19.1840278,23.2465278 19.5,24.0138889 19.5,24.9166667 C19.5,25.8194444 19.1840278,26.5868056 18.5520833,27.21875 C17.9201389,27.8506944 17.1527778,28.1666667 16.25,28.1666667 Z M4.33333333,43.3333333 C3.14166667,43.3333333 2.12152778,42.9090278 1.27291667,42.0604167 C0.424305556,41.2118056 0,40.1916667 0,39 L0,4.33333333 C0,3.14166667 0.424305556,2.12152778 1.27291667,1.27291667 C2.12152778,0.424305556 3.14166667,0 4.33333333,0 L21.6666667,0 L34.6666667,13 L34.6666667,39 C34.6666667,40.1916667 34.2423611,41.2118056 33.39375,42.0604167 C32.5451389,42.9090278 31.525,43.3333333 30.3333333,43.3333333 L4.33333333,43.3333333 Z M19.5,15.1666667 L30.3333333,15.1666667 L19.5,4.33333333 L19.5,15.1666667 Z" id="Shape"></path>
            </g>
        </g>
    </g>
</svg>