<?xml version="1.0" encoding="UTF-8"?>
<svg width="44px" height="44px" viewBox="0 0 44 44" version="1.1" xmlns="http://www.w3.org/2000/svg" xmlns:xlink="http://www.w3.org/1999/xlink">
    <title>4AC0E8A9-27F4-45C9-97FD-84EA6B071F77</title>
    <g id="Page-1" stroke="none" stroke-width="1" fill="none" fill-rule="evenodd">
        <g id="Version-24-05-(Drishti)-Copy-3" transform="translate(-1298, -1498)" fill="blue" fill-rule="nonzero">
            <g id="rocket_launch_24dp_FILL1_wght400_GRAD0_opsz24" transform="translate(1298.3333, 1498.375)">
                <path d="M0.602782771,17.9616585 L9.80891964,8.75552165 C10.3203717,8.2440696 10.9231545,7.87874671 11.617268,7.65955297 C12.3113814,7.44035924 13.0237611,7.40382695 13.7544069,7.54995611 L16.6039254,8.15273888 C14.6311818,10.4908054 13.0785595,12.6096782 11.9460586,14.5093572 C10.8135576,16.4090362 9.71758892,18.7105704 8.65815253,21.4139598 L0.602782771,17.9616585 Z M11.8364617,22.948316 C12.6767043,20.3179912 13.8183384,17.8337955 15.2613638,15.495729 C16.7043892,13.1576625 18.448806,10.9657251 20.4946142,8.91991695 C23.7094557,5.7050755 27.3809507,3.30307749 31.5090994,1.71392291 C35.6372481,0.124768335 39.4914046,-0.359284497 43.0715689,0.261764419 C43.6926178,3.84192876 43.2176981,7.69608526 41.6468096,11.8242339 C40.0759212,15.9523826 37.6830563,19.6238777 34.4682148,22.8387191 C32.4589389,24.847995 30.2670016,26.5924118 27.8924028,28.0719695 C25.517804,29.5515272 23.0153422,30.7114274 20.3850173,31.5516701 L11.8364617,22.948316 Z M26.9608294,16.3725039 C27.801072,17.2127466 28.8331092,17.6328679 30.0569409,17.6328679 C31.2807726,17.6328679 32.3128098,17.2127466 33.1530524,16.3725039 C33.9932951,15.5322613 34.4134164,14.5002241 34.4134164,13.2763924 C34.4134164,12.0525607 33.9932951,11.0205236 33.1530524,10.1802809 C32.3128098,9.34003827 31.2807726,8.91991695 30.0569409,8.91991695 C28.8331092,8.91991695 27.801072,9.34003827 26.9608294,10.1802809 C26.1205867,11.0205236 25.7004654,12.0525607 25.7004654,13.2763924 C25.7004654,14.5002241 26.1205867,15.5322613 26.9608294,16.3725039 Z M25.4264733,42.7305506 L21.9193735,34.6751808 C24.6227629,33.6157444 26.9334302,32.5197757 28.8513754,31.3872748 C30.7693205,30.2547738 32.8973264,28.7021515 35.2353929,26.7294079 L35.7833772,29.5789265 C35.9295064,30.3095722 35.8929741,31.031085 35.6737804,31.7434646 C35.4545866,32.4558442 35.0892637,33.0677601 34.5778117,33.5792121 L25.4264733,42.7305506 Z M4.10988253,29.9625155 C5.38851265,28.6838854 6.94113494,28.0354372 8.7677494,28.0171711 C10.5943639,27.998905 12.1469861,28.6290869 13.4256163,29.9077171 C14.7042464,31.1863472 15.3435614,32.7389695 15.3435614,34.5655839 C15.3435614,36.3921984 14.7042464,37.9448207 13.4256163,39.2234508 C12.512309,40.136758 10.987086,40.9222022 8.84994705,41.5797835 C6.71280813,42.2373647 3.76282578,42.8218813 0,43.3333333 C0.511452048,39.5705076 1.09596867,36.6296583 1.75354988,34.5107855 C2.41113108,32.3919127 3.1965753,30.8758227 4.10988253,29.9625155 Z" id="Shape"></path>
            </g>
        </g>
    </g>
</svg>